<svg width="65" height="70" viewBox="0 0 65 70" fill="none" xmlns="http://www.w3.org/2000/svg">
<path d="M53.9527 52.0013C62.3487 41.4345 55.9829 25.9879 42.2046 25.2502C41.5147 25.1855 40.7434 25.2517 40.0788 25.2932C40.2031 34.3394 35.9074 44.1829 28.517 46.6747C21.8475 48.888 18.1833 42.4522 20.9357 36.9987C24.2323 30.5232 30.0387 25.1482 37.1035 23.1798C36.5381 17.4845 33.7599 12.4126 27.6185 10.6946C17.2678 7.82046 6.49364 17.3682 4.98841 27.127C4.89565 28.1568 3.30272 28.0767 3.39548 27.047C3.98732 13.914 19.7395 3.55218 31.9628 9.57876C36.6881 11.9601 39.2277 16.9751 39.8996 22.6457C47.3233 21.7147 54.415 26.014 58.2418 32.1879C62.6406 39.3502 60.6002 47.3281 55.6096 53.2988C54.827 54.264 53.2765 52.9415 53.9527 52.0013ZM26.7754 33.1846C24.8343 35.4257 22.6994 38.2717 22.4212 41.361C22.1176 44.3439 26.1813 44.4135 27.9117 44.1255C30.0685 43.7392 31.6338 41.809 32.798 40.0836C35.4208 36.4527 37.1637 31.0084 37.2824 25.8273C33.2016 27.1063 29.631 30.06 26.7754 33.1846Z" fill="#6366F1"/>
<path d="M51.4065 58.7766C50.7004 55.8028 50.1822 52.6735 50.2474 49.6336C50.2897 48.3916 52.0144 48.5531 52.0787 49.7708C52.2071 52.2059 52.8937 54.624 53.5551 56.9359C54.9152 56.5096 56.382 56.0587 57.717 55.5262C58.7323 55.0675 60.1543 53.9547 61.3714 54.3457C61.9801 54.5411 62.1061 55.0722 62.0189 55.6525C61.7887 57.0501 59.5506 57.5672 58.4288 58.0505C56.5859 58.8124 54.7995 59.337 52.8811 59.7803C52.242 59.9279 51.5578 59.4138 51.4065 58.7766Z" fill="#6366F1"/>
</svg>
