<svg width="60" height="22" viewBox="0 0 60 22" fill="none" xmlns="http://www.w3.org/2000/svg">
<path d="M3.7522 18.4999H6.7522H11.2522H14.2522C15.0794 18.4999 15.7522 17.8272 15.7522 16.9999V10.2499C15.7522 10.0512 15.6734 9.85994 15.5324 9.71969L9.53245 3.71969C9.2392 3.42644 8.7652 3.42644 8.47195 3.71969L2.47195 9.71969C2.33095 9.85994 2.2522 10.0512 2.2522 10.2499V16.9999C2.2522 17.8272 2.92495 18.4999 3.7522 18.4999ZM7.5022 16.9999V13.2499H10.5022V16.9999H7.5022ZM3.7522 10.5604L9.0022 5.31044L14.2522 10.5604L14.2529 16.9999H12.0022V13.2499C12.0022 12.4227 11.3294 11.7499 10.5022 11.7499H7.5022C6.67495 11.7499 6.0022 12.4227 6.0022 13.2499V16.9999H3.7522V10.5604Z" fill="#9397AD"/>
<path d="M22.98 16V5.92H24.009V10.463H29.581V5.92H30.603V16H29.581V11.45H24.009V16H22.98ZM35.721 16.21C34.9697 16.21 34.328 16.0397 33.796 15.699C33.264 15.3583 32.8557 14.887 32.571 14.285C32.2863 13.683 32.144 12.9923 32.144 12.213C32.144 11.4197 32.2887 10.7243 32.578 10.127C32.8673 9.52967 33.278 9.06533 33.81 8.734C34.3467 8.398 34.9837 8.23 35.721 8.23C36.477 8.23 37.121 8.40033 37.653 8.741C38.1897 9.077 38.598 9.546 38.878 10.148C39.1627 10.7453 39.305 11.4337 39.305 12.213C39.305 13.0063 39.1627 13.704 38.878 14.306C38.5933 14.9033 38.1827 15.37 37.646 15.706C37.1093 16.042 36.4677 16.21 35.721 16.21ZM35.721 15.223C36.561 15.223 37.1863 14.9453 37.597 14.39C38.0077 13.83 38.213 13.1043 38.213 12.213C38.213 11.2983 38.0053 10.5703 37.59 10.029C37.1793 9.48767 36.5563 9.217 35.721 9.217C35.1563 9.217 34.6897 9.34533 34.321 9.602C33.957 9.854 33.684 10.2063 33.502 10.659C33.3247 11.107 33.236 11.625 33.236 12.213C33.236 13.123 33.446 13.8533 33.866 14.404C34.286 14.95 34.9043 15.223 35.721 15.223ZM49.8651 16L49.8721 11.037C49.8721 10.4537 49.7088 9.99633 49.3821 9.665C49.0601 9.329 48.6495 9.161 48.1501 9.161C47.8655 9.161 47.5878 9.22633 47.3171 9.357C47.0465 9.48767 46.8225 9.69767 46.6451 9.987C46.4725 10.2763 46.3861 10.6543 46.3861 11.121L45.7771 10.946C45.7631 10.4047 45.8681 9.931 46.0921 9.525C46.3208 9.119 46.6335 8.804 47.0301 8.58C47.4315 8.35133 47.8841 8.237 48.3881 8.237C49.1488 8.237 49.7578 8.47267 50.2151 8.944C50.6725 9.41067 50.9011 10.043 50.9011 10.841L50.8941 16H49.8651ZM40.8421 16V8.44H41.7661V10.302H41.8781V16H40.8421ZM45.3641 16L45.3711 11.107C45.3711 10.505 45.2101 10.0313 44.8881 9.686C44.5708 9.336 44.1508 9.161 43.6281 9.161C43.1055 9.161 42.6831 9.34067 42.3611 9.7C42.0391 10.0547 41.8781 10.5283 41.8781 11.121L41.2621 10.785C41.2621 10.2997 41.3765 9.86567 41.6051 9.483C41.8338 9.09567 42.1465 8.79233 42.5431 8.573C42.9398 8.349 43.3901 8.237 43.8941 8.237C44.3748 8.237 44.8018 8.33967 45.1751 8.545C45.5531 8.75033 45.8495 9.049 46.0641 9.441C46.2788 9.833 46.3861 10.309 46.3861 10.869L46.3791 16H45.3641ZM55.8743 16.21C55.137 16.21 54.4976 16.0467 53.9563 15.72C53.4196 15.3933 53.002 14.9337 52.7033 14.341C52.4046 13.7483 52.2553 13.053 52.2553 12.255C52.2553 11.429 52.4023 10.715 52.6963 10.113C52.9903 9.511 53.4033 9.04667 53.9353 8.72C54.472 8.39333 55.1043 8.23 55.8323 8.23C56.579 8.23 57.216 8.40267 57.7433 8.748C58.2706 9.08867 58.6696 9.57867 58.9403 10.218C59.211 10.8573 59.3346 11.6203 59.3113 12.507H58.2613V12.143C58.2426 11.163 58.0303 10.4233 57.6243 9.924C57.223 9.42467 56.635 9.175 55.8603 9.175C55.0483 9.175 54.4253 9.43867 53.9913 9.966C53.562 10.4933 53.3473 11.2447 53.3473 12.22C53.3473 13.172 53.562 13.9117 53.9913 14.439C54.4253 14.9617 55.039 15.223 55.8323 15.223C56.3736 15.223 56.845 15.0993 57.2463 14.852C57.6523 14.6 57.972 14.2383 58.2053 13.767L59.1643 14.138C58.8656 14.796 58.4246 15.307 57.8413 15.671C57.2626 16.0303 56.607 16.21 55.8743 16.21ZM52.9833 12.507V11.646H58.7583V12.507H52.9833Z" fill="#9397AD"/>
</svg>
