<svg width="35" height="12" viewBox="0 0 35 12" fill="none" xmlns="http://www.w3.org/2000/svg">
<path d="M0.98 11V0.92H2.016L7.567 9.18V0.92H8.603V11H7.567L2.016 2.733V11H0.98ZM13.763 11.21C13.0257 11.21 12.3863 11.0467 11.845 10.72C11.3083 10.3933 10.8907 9.93367 10.592 9.341C10.2933 8.74833 10.144 8.053 10.144 7.255C10.144 6.429 10.291 5.715 10.585 5.113C10.879 4.511 11.292 4.04667 11.824 3.72C12.3607 3.39333 12.993 3.23 13.721 3.23C14.4677 3.23 15.1047 3.40267 15.632 3.748C16.1593 4.08867 16.5583 4.57867 16.829 5.218C17.0997 5.85733 17.2233 6.62033 17.2 7.507H16.15V7.143C16.1313 6.163 15.919 5.42333 15.513 4.924C15.1117 4.42467 14.5237 4.175 13.749 4.175C12.937 4.175 12.314 4.43867 11.88 4.966C11.4507 5.49333 11.236 6.24467 11.236 7.22C11.236 8.172 11.4507 8.91167 11.88 9.439C12.314 9.96167 12.9277 10.223 13.721 10.223C14.2623 10.223 14.7337 10.0993 15.135 9.852C15.541 9.6 15.8607 9.23833 16.094 8.767L17.053 9.138C16.7543 9.796 16.3133 10.307 15.73 10.671C15.1513 11.0303 14.4957 11.21 13.763 11.21ZM10.872 7.507V6.646H16.647V7.507H10.872ZM20.09 11L17.78 3.433L18.809 3.44L20.601 9.313L22.4 3.44H23.338L25.137 9.313L26.943 3.44H27.965L25.655 11H24.759L22.869 4.98L20.986 11H20.09ZM31.7737 11.203C30.887 11.203 30.1567 11.0117 29.5827 10.629C29.0133 10.2463 28.6633 9.71433 28.5327 9.033L29.5827 8.858C29.6947 9.28733 29.949 9.63033 30.3457 9.887C30.747 10.139 31.2417 10.265 31.8297 10.265C32.4037 10.265 32.8563 10.146 33.1877 9.908C33.519 9.66533 33.6847 9.33633 33.6847 8.921C33.6847 8.68767 33.631 8.49867 33.5237 8.354C33.421 8.20467 33.2087 8.067 32.8867 7.941C32.5647 7.815 32.084 7.66567 31.4447 7.493C30.7587 7.30633 30.222 7.11967 29.8347 6.933C29.4473 6.74633 29.172 6.53167 29.0087 6.289C28.8453 6.04167 28.7637 5.74067 28.7637 5.386C28.7637 4.95667 28.885 4.581 29.1277 4.259C29.3703 3.93233 29.7063 3.68033 30.1357 3.503C30.565 3.321 31.0643 3.23 31.6337 3.23C32.203 3.23 32.7117 3.32333 33.1597 3.51C33.6123 3.692 33.9763 3.94867 34.2517 4.28C34.527 4.61133 34.6903 4.99633 34.7417 5.435L33.6917 5.624C33.6217 5.18067 33.4 4.83067 33.0267 4.574C32.658 4.31267 32.189 4.17733 31.6197 4.168C31.083 4.154 30.6467 4.25667 30.3107 4.476C29.9747 4.69067 29.8067 4.97767 29.8067 5.337C29.8067 5.53767 29.8673 5.71033 29.9887 5.855C30.11 5.995 30.3293 6.128 30.6467 6.254C30.9687 6.38 31.426 6.51767 32.0187 6.667C32.714 6.84433 33.26 7.031 33.6567 7.227C34.0533 7.423 34.3357 7.654 34.5037 7.92C34.6717 8.186 34.7557 8.515 34.7557 8.907C34.7557 9.621 34.4897 10.1833 33.9577 10.594C33.4303 11 32.7023 11.203 31.7737 11.203Z" fill="#6366F1"/>
</svg>
