<svg width="53" height="12" viewBox="0 0 53 12" fill="none" xmlns="http://www.w3.org/2000/svg">
<path d="M5.061 11.21C4.05767 11.21 3.21067 10.9883 2.52 10.545C1.82933 10.097 1.30667 9.47867 0.952 8.69C0.597333 7.90133 0.42 6.99133 0.42 5.96C0.42 4.92867 0.597333 4.01867 0.952 3.23C1.30667 2.44133 1.82933 1.82533 2.52 1.382C3.21067 0.934 4.05767 0.71 5.061 0.71C6.23233 0.71 7.189 1.011 7.931 1.613C8.673 2.21033 9.18167 3.013 9.457 4.021L8.407 4.294C8.19233 3.496 7.80733 2.86367 7.252 2.397C6.69667 1.93033 5.96633 1.697 5.061 1.697C4.27233 1.697 3.61667 1.87667 3.094 2.236C2.57133 2.59533 2.177 3.097 1.911 3.741C1.64967 4.38033 1.51433 5.12 1.505 5.96C1.50033 6.8 1.62867 7.53967 1.89 8.179C2.156 8.81833 2.55267 9.32 3.08 9.684C3.612 10.0433 4.27233 10.223 5.061 10.223C5.96633 10.223 6.69667 9.98967 7.252 9.523C7.80733 9.05167 8.19233 8.41933 8.407 7.626L9.457 7.899C9.18167 8.907 8.673 9.712 7.931 10.314C7.189 10.9113 6.23233 11.21 5.061 11.21ZM14.1585 11.21C13.4072 11.21 12.7655 11.0397 12.2335 10.699C11.7015 10.3583 11.2932 9.887 11.0085 9.285C10.7238 8.683 10.5815 7.99233 10.5815 7.213C10.5815 6.41967 10.7262 5.72433 11.0155 5.127C11.3048 4.52967 11.7155 4.06533 12.2475 3.734C12.7842 3.398 13.4212 3.23 14.1585 3.23C14.9145 3.23 15.5585 3.40033 16.0905 3.741C16.6272 4.077 17.0355 4.546 17.3155 5.148C17.6002 5.74533 17.7425 6.43367 17.7425 7.213C17.7425 8.00633 17.6002 8.704 17.3155 9.306C17.0308 9.90333 16.6202 10.37 16.0835 10.706C15.5468 11.042 14.9052 11.21 14.1585 11.21ZM14.1585 10.223C14.9985 10.223 15.6238 9.94533 16.0345 9.39C16.4452 8.83 16.6505 8.10433 16.6505 7.213C16.6505 6.29833 16.4428 5.57033 16.0275 5.029C15.6168 4.48767 14.9938 4.217 14.1585 4.217C13.5938 4.217 13.1272 4.34533 12.7585 4.602C12.3945 4.854 12.1215 5.20633 11.9395 5.659C11.7622 6.107 11.6735 6.625 11.6735 7.213C11.6735 8.123 11.8835 8.85333 12.3035 9.404C12.7235 9.95 13.3418 10.223 14.1585 10.223ZM24.7466 11V7.143C24.7466 6.723 24.707 6.338 24.6276 5.988C24.5483 5.63333 24.42 5.32533 24.2426 5.064C24.07 4.798 23.8436 4.59267 23.5636 4.448C23.2883 4.30333 22.9523 4.231 22.5556 4.231C22.1916 4.231 21.8696 4.294 21.5896 4.42C21.3143 4.546 21.081 4.728 20.8896 4.966C20.703 5.19933 20.5606 5.484 20.4626 5.82C20.3646 6.156 20.3156 6.53867 20.3156 6.968L19.5876 6.807C19.5876 6.03233 19.723 5.38133 19.9936 4.854C20.2643 4.32667 20.6376 3.92767 21.1136 3.657C21.5896 3.38633 22.1356 3.251 22.7516 3.251C23.2043 3.251 23.5986 3.321 23.9346 3.461C24.2753 3.601 24.5623 3.79 24.7956 4.028C25.0336 4.266 25.225 4.539 25.3696 4.847C25.5143 5.15033 25.6193 5.47467 25.6846 5.82C25.75 6.16067 25.7826 6.50133 25.7826 6.842V11H24.7466ZM19.2796 11V3.44H20.2106V5.302H20.3156V11H19.2796ZM31.7151 11C31.2905 11.0887 30.8705 11.1237 30.4551 11.105C30.0445 11.0863 29.6758 10.9977 29.3491 10.839C29.0271 10.6803 28.7821 10.433 28.6141 10.097C28.4788 9.817 28.4041 9.53467 28.3901 9.25C28.3808 8.96067 28.3761 8.63167 28.3761 8.263V1.34H29.3981V8.221C29.3981 8.53833 29.4005 8.80433 29.4051 9.019C29.4145 9.229 29.4635 9.41567 29.5521 9.579C29.7201 9.89167 29.9861 10.0783 30.3501 10.139C30.7188 10.1997 31.1738 10.1857 31.7151 10.097V11ZM26.7591 4.322V3.44H31.7151V4.322H26.7591ZM35.3676 11.21C34.7983 11.21 34.3199 11.1073 33.9326 10.902C33.5499 10.6967 33.2629 10.4237 33.0716 10.083C32.8803 9.74233 32.7846 9.37133 32.7846 8.97C32.7846 8.55933 32.8663 8.20933 33.0296 7.92C33.1976 7.626 33.4239 7.38567 33.7086 7.199C33.9979 7.01233 34.3316 6.87 34.7096 6.772C35.0923 6.67867 35.5146 6.597 35.9766 6.527C36.4433 6.45233 36.8983 6.38933 37.3416 6.338C37.7896 6.282 38.1816 6.22833 38.5176 6.177L38.1536 6.401C38.1676 5.65433 38.0229 5.10133 37.7196 4.742C37.4163 4.38267 36.8889 4.203 36.1376 4.203C35.6196 4.203 35.1809 4.31967 34.8216 4.553C34.4669 4.78633 34.2173 5.155 34.0726 5.659L33.0716 5.365C33.2443 4.68833 33.5919 4.16333 34.1146 3.79C34.6373 3.41667 35.3163 3.23 36.1516 3.23C36.8423 3.23 37.4279 3.36067 37.9086 3.622C38.3939 3.87867 38.7369 4.252 38.9376 4.742C39.0309 4.96133 39.0916 5.20633 39.1196 5.477C39.1476 5.74767 39.1616 6.023 39.1616 6.303V11H38.2446V9.103L38.5106 9.215C38.2539 9.86367 37.8549 10.3583 37.3136 10.699C36.7723 11.0397 36.1236 11.21 35.3676 11.21ZM35.4866 10.321C35.9673 10.321 36.3873 10.2347 36.7466 10.062C37.1059 9.88933 37.3953 9.65367 37.6146 9.355C37.8339 9.05167 37.9763 8.711 38.0416 8.333C38.0976 8.09033 38.1279 7.82433 38.1326 7.535C38.1373 7.241 38.1396 7.02167 38.1396 6.877L38.5316 7.08C38.1816 7.12667 37.8013 7.17333 37.3906 7.22C36.9846 7.26667 36.5833 7.32033 36.1866 7.381C35.7946 7.44167 35.4399 7.514 35.1226 7.598C34.9079 7.65867 34.7003 7.745 34.4996 7.857C34.2989 7.96433 34.1333 8.109 34.0026 8.291C33.8766 8.473 33.8136 8.69933 33.8136 8.97C33.8136 9.18933 33.8673 9.40167 33.9746 9.607C34.0866 9.81233 34.2639 9.98267 34.5066 10.118C34.7539 10.2533 35.0806 10.321 35.4866 10.321ZM44.1199 11.21C43.3592 11.21 42.7152 11.0397 42.1879 10.699C41.6606 10.3583 41.2592 9.88933 40.9839 9.292C40.7132 8.69 40.5732 7.99933 40.5639 7.22C40.5732 6.42667 40.7179 5.73133 40.9979 5.134C41.2779 4.532 41.6816 4.06533 42.2089 3.734C42.7362 3.398 43.3756 3.23 44.1269 3.23C44.8922 3.23 45.5572 3.41667 46.1219 3.79C46.6912 4.16333 47.0809 4.67433 47.2909 5.323L46.2829 5.645C46.1056 5.19233 45.8232 4.84233 45.4359 4.595C45.0532 4.343 44.6146 4.217 44.1199 4.217C43.5646 4.217 43.1049 4.34533 42.7409 4.602C42.3769 4.854 42.1062 5.20633 41.9289 5.659C41.7516 6.11167 41.6606 6.632 41.6559 7.22C41.6652 8.12533 41.8752 8.85333 42.2859 9.404C42.6966 9.95 43.3079 10.223 44.1199 10.223C44.6332 10.223 45.0696 10.1063 45.4289 9.873C45.7929 9.635 46.0682 9.28967 46.2549 8.837L47.2909 9.145C47.0109 9.817 46.6002 10.3303 46.0589 10.685C45.5176 11.035 44.8712 11.21 44.1199 11.21ZM52.8519 11C52.4272 11.0887 52.0072 11.1237 51.5919 11.105C51.1812 11.0863 50.8125 10.9977 50.4859 10.839C50.1639 10.6803 49.9189 10.433 49.7509 10.097C49.6155 9.817 49.5409 9.53467 49.5269 9.25C49.5175 8.96067 49.5129 8.63167 49.5129 8.263V1.34H50.5349V8.221C50.5349 8.53833 50.5372 8.80433 50.5419 9.019C50.5512 9.229 50.6002 9.41567 50.6889 9.579C50.8569 9.89167 51.1229 10.0783 51.4869 10.139C51.8555 10.1997 52.3105 10.1857 52.8519 10.097V11ZM47.8959 4.322V3.44H52.8519V4.322H47.8959Z" fill="#6366F1"/>
</svg>
