<svg width="18" height="18" viewBox="0 0 18 18" fill="none" xmlns="http://www.w3.org/2000/svg">
<path d="M12.805 17.3325C12.8092 17.3325 12.8242 17.3325 12.8283 17.3325C13.2683 17.3325 13.6842 17.1591 13.9992 16.8441L16.2592 14.5841C16.585 14.2583 16.585 13.7316 16.2592 13.4058L12.9259 10.0725C12.6 9.74663 12.0733 9.74663 11.7475 10.0725L10.4192 11.4008C9.80335 11.2175 8.65418 10.8008 7.92585 10.0725C7.19752 9.34413 6.78085 8.19496 6.59752 7.57913L7.92585 6.25079C8.25168 5.92496 8.25168 5.39829 7.92585 5.07246L4.59252 1.73913C4.28002 1.42663 3.72668 1.42663 3.41418 1.73913L1.15502 3.99913C0.838351 4.31579 0.660018 4.75079 0.666684 5.19496C0.685851 6.38163 1.00002 10.5033 4.24835 13.7516C7.49668 17 11.6183 17.3133 12.805 17.3325ZM4.00418 3.50663L6.15918 5.66163L5.08168 6.73913C4.88252 6.93746 4.79752 7.22413 4.85585 7.49913C4.87585 7.59496 5.36502 9.86746 6.74835 11.2508C8.13168 12.6341 10.4042 13.1233 10.5 13.1433C10.7775 13.2016 11.0617 13.1166 11.26 12.9175L12.3375 11.84L14.4925 13.995L12.8208 15.6658C11.7808 15.6483 8.22252 15.3691 5.42668 12.5725C2.62168 9.76746 2.35002 6.19663 2.33335 5.17746L4.00418 3.50663ZM15.6659 8.16579H17.3325C17.3325 3.89079 14.105 0.666626 9.82418 0.666626V2.33329C13.2092 2.33329 15.6659 4.78579 15.6659 8.16579Z" fill="#6366F1"/>
</svg>
